<?xml version="1.0" encoding="UTF-8"?>
<svg width="510px" height="256px" viewBox="0 0 510 256" version="1.1" xmlns="http://www.w3.org/2000/svg" xmlns:xlink="http://www.w3.org/1999/xlink">
    <!-- Generator: Sketch 54.1 (76490) - https://sketchapp.com -->
    <title>Group</title>
    <desc>Created with Sketch.</desc>
    <defs>
        <linearGradient x1="32.2307587%" y1="31.3008625%" x2="65.5103712%" y2="78.8667264%" id="linearGradient-1">
            <stop stop-color="#F8F8F8" offset="0%"></stop>
            <stop stop-color="#FFFFFF" stop-opacity="0" offset="100%"></stop>
        </linearGradient>
    </defs>
    <g id="logo" stroke="none" stroke-width="1" fill="none" fill-rule="evenodd">
        <g transform="translate(-257.000000, -384.000000)" id="Group">
            <g transform="translate(257.000000, 384.000000)">
                <path d="M55.3358558,164.3172 C43.2133101,153.659868 10.9102912,121.559299 0,109.344797 L111.548813,0 C121.489301,9.67874311 154.826302,42.1150327 171.826389,56.3581425 C193.547139,74.5656083 212.985998,88.3372812 229.907645,97.5231584 C233.15934,99.2874754 233.594325,103.787555 230.720569,106.123311 C191.935553,137.645299 155.289811,160.388559 121.56061,173.853084 C106.450213,178.70317 71.3946634,178.70317 55.3358558,164.3172 Z" id="Fill-1" fill="url(#linearGradient-1)"></path>
                <path d="M183.818014,238.857558 C166.368265,232.967077 149.32582,225.761247 132.869321,217.32585 C128.882032,215.281338 129.153567,209.490939 133.326644,207.8539 C154.249193,199.668705 176.022078,188.381 198.380908,174.126609 C230.757981,153.481333 264.728541,126.438022 299.349357,93.754433 C338.965003,56.3455921 372.356762,19.7088046 388.63462,0 L509.968254,118.881908 C500.014323,132.528664 480.628095,156.769708 452.945733,180.924967 C428.257411,202.48527 401.939874,219.713496 374.729128,232.137835 C341.080124,247.500265 305.901945,255.52819 270.166403,256 C267.736872,255.978554 232.544401,255.320879 183.818014,238.857558" id="Fill-3" fill="#F8F8F8"></path>
            </g>
        </g>
    </g>
</svg>